<svg width="22" height="20" viewBox="0 0 22 20" fill="none" xmlns="http://www.w3.org/2000/svg">
<path d="M21.4815 15.104C21.4388 15.1467 21.4175 15.1893 21.4175 15.232C21.4388 15.2533 21.4602 15.2853 21.4815 15.328L21.5775 15.392V15.424L21.4815 17.856L21.1935 18.976C21.1722 18.9973 21.1188 19.0293 21.0335 19.072L20.6495 19.456C20.4788 19.5627 20.3402 19.6587 20.2335 19.744C20.1268 19.808 20.0628 19.84 20.0415 19.84C19.9988 19.7973 19.4335 19.6053 18.3455 19.264C17.7695 19.0507 17.3428 18.9013 17.0655 18.816C16.7882 18.7093 16.6175 18.6347 16.5535 18.592C16.6602 18.3147 16.7348 18.016 16.7775 17.696C16.8415 17.3547 16.8842 16.9813 16.9055 16.576C16.9055 16.384 16.9055 16.2133 16.9055 16.064C16.9268 15.8933 16.9482 15.7547 16.9695 15.648C16.9908 15.5627 17.0015 15.456 17.0015 15.328C17.0655 15.2853 17.3322 15.2533 17.8015 15.232C18.3135 15.1893 18.6015 15.136 18.6655 15.072C18.6655 15.0933 18.7935 15.0507 19.0495 14.944L19.4335 14.816C19.4762 14.816 19.5615 14.8373 19.6895 14.88C19.8175 14.9013 19.9455 14.9333 20.0735 14.976C20.2228 14.9973 20.3508 15.0293 20.4575 15.072C20.5855 15.0933 20.6708 15.104 20.7135 15.104C20.8628 15.104 20.9588 15.104 21.0015 15.104C21.0442 15.0827 21.0762 15.072 21.0975 15.072C21.1402 15.072 21.1828 15.072 21.2255 15.072C21.2682 15.072 21.3535 15.0827 21.4815 15.104Z" fill="black"/>
<path d="M11.264 13.504C11.3493 13.4613 11.4133 13.3653 11.456 13.216C11.4987 13.0453 11.5307 12.864 11.552 12.672C11.5947 12.48 11.6267 12.288 11.648 12.096C11.6907 11.8827 11.7547 11.712 11.84 11.584C12.096 11.2 12.3093 10.88 12.48 10.624C12.672 10.3467 12.832 10.1227 12.96 9.952C13.1093 9.76 13.2267 9.61067 13.312 9.504C13.3973 9.376 13.4613 9.248 13.504 9.12C13.7813 8.90667 13.9307 8.71467 13.952 8.544C13.9947 8.37333 14.0907 8.13867 14.24 7.84C14.3467 7.62667 14.464 7.34933 14.592 7.008C14.72 6.64533 14.7947 6.432 14.816 6.368C14.88 6.176 14.9867 5.96267 15.136 5.728C15.3067 5.472 15.4667 5.20533 15.616 4.928C15.7867 4.62933 15.936 4.32 16.064 4C16.192 3.65867 16.256 3.30667 16.256 2.944C16.2773 2.47467 16.288 2.06933 16.288 1.728C16.3093 1.36533 16.3413 1.056 16.384 0.799999L17.376 0.576L18.496 1.088C18.496 1.42933 18.6027 1.728 18.816 1.984C19.0507 2.21867 19.1787 2.432 19.2 2.624C19.2 2.79467 19.072 3.09333 18.816 3.52C18.56 3.92533 18.368 4.42667 18.24 5.024C18.2187 5.19467 18.0907 5.41867 17.856 5.696C17.6213 5.952 17.4933 6.26133 17.472 6.624C17.472 6.98667 17.3973 7.36 17.248 7.744C17.0987 8.10667 16.992 8.36267 16.928 8.512C16.736 8.98133 16.448 9.61067 16.064 10.4C15.7013 11.1893 15.2427 12.16 14.688 13.312C14.1333 14.464 13.6747 15.36 13.312 16C12.9493 16.64 12.736 17.0347 12.672 17.184L12.416 17.76L12.16 18.272L10.912 19.136L8.832 19.168L8.192 19.488L7.04 18.176C6.912 17.856 6.72 17.504 6.464 17.12C6.22933 16.736 6.00533 16.288 5.792 15.776L5.056 13.888C5.248 13.44 5.344 13.088 5.344 12.832C5.36533 12.576 5.32267 12.384 5.216 12.256C5.10933 12.128 4.96 12.0533 4.768 12.032C4.576 11.9893 4.37333 11.9573 4.16 11.936C4.032 11.9147 3.89333 11.7867 3.744 11.552C3.59467 11.296 3.44533 11.1253 3.296 11.04L3.232 10.304L2.4 8.96L2.144 6.208C2.18667 6.05867 2.16533 5.94133 2.08 5.856C2.016 5.77067 1.92 5.70667 1.792 5.664L1.408 5.504C1.25867 5.44 1.17333 5.36533 1.152 5.28C0.981333 4.93867 0.842667 4.62933 0.736 4.352C0.650667 4.05333 0.576 3.78667 0.512 3.552C0.448 3.31733 0.373333 3.104 0.288 2.912C0.224 2.72 0.128 2.56 0 2.432L0.032 1.12C0.288 0.970666 0.629333 0.874666 1.056 0.831999C1.54667 0.789333 1.92 0.618666 2.176 0.32L3.232 0C3.488 0.213333 3.744 0.405333 4 0.576C4.256 0.746666 4.448 0.906666 4.576 1.056C4.91733 1.46133 5.36533 1.792 5.92 2.048C5.94133 2.15467 6.00533 2.4 6.112 2.784C6.24 3.168 6.37867 3.62667 6.528 4.16C6.69867 4.69333 6.89067 5.28 7.104 5.92C7.31733 6.53867 7.52 7.14667 7.712 7.744C7.92533 8.34133 8.128 8.896 8.32 9.408C8.53333 9.89867 8.71467 10.2933 8.864 10.592C8.928 10.72 9.00267 10.9227 9.088 11.2C9.17333 11.4773 9.25867 11.7653 9.344 12.064C9.42933 12.3413 9.504 12.608 9.568 12.864C9.65333 13.12 9.71733 13.2907 9.76 13.376C9.90933 13.376 10.0373 13.3973 10.144 13.44C10.2507 13.4827 10.3573 13.5253 10.464 13.568C10.5707 13.6107 10.688 13.632 10.816 13.632C10.944 13.632 11.0933 13.5893 11.264 13.504Z" fill="black"/>
</svg>
